<?xml version="1.0" encoding="UTF-8" standalone="no"?>
<!DOCTYPE svg PUBLIC "-//W3C//DTD SVG 1.1//EN" "http://www.w3.org/Graphics/SVG/1.1/DTD/svg11.dtd">
<svg width="100%" height="100%" viewBox="0 0 203 51" version="1.1" xmlns="http://www.w3.org/2000/svg" xmlns:xlink="http://www.w3.org/1999/xlink" xml:space="preserve" xmlns:serif="http://www.serif.com/" style="fill-rule:evenodd;clip-rule:evenodd;stroke-linejoin:round;stroke-miterlimit:2;">
    <g transform="matrix(1,0,0,1,-9.93222,-5.17857)">
        <g transform="matrix(1,0,0,1,67.4858,2.38747)">
            <g transform="matrix(40.885,0,0,40.885,8.91725,42.2545)">
                <path d="M0.045,0.026C0.057,0.129 0.147,0.205 0.267,0.205C0.448,0.205 0.508,0.086 0.508,-0.036L0.508,-0.481L0.415,-0.481L0.415,-0.414C0.391,-0.462 0.341,-0.49 0.267,-0.49C0.135,-0.49 0.046,-0.386 0.046,-0.256C0.046,-0.12 0.139,-0.023 0.267,-0.023C0.339,-0.023 0.391,-0.058 0.414,-0.102L0.414,-0.033C0.414,0.071 0.368,0.123 0.267,0.123C0.194,0.123 0.143,0.072 0.136,0.005L0.045,0.026ZM0.281,-0.102C0.196,-0.102 0.142,-0.162 0.142,-0.256C0.142,-0.349 0.198,-0.41 0.281,-0.41C0.362,-0.41 0.418,-0.349 0.418,-0.256C0.418,-0.163 0.362,-0.102 0.281,-0.102Z" style="fill:white;fill-rule:nonzero;"/>
            </g>
            <g transform="matrix(40.885,0,0,40.885,32.5488,42.2545)">
                <path d="M0.286,-0.069C0.206,-0.069 0.136,-0.129 0.136,-0.241C0.136,-0.352 0.206,-0.412 0.286,-0.412C0.366,-0.412 0.436,-0.352 0.436,-0.241C0.436,-0.129 0.366,-0.069 0.286,-0.069ZM0.286,-0.496C0.142,-0.496 0.04,-0.387 0.04,-0.241C0.04,-0.094 0.142,0.015 0.286,0.015C0.43,0.015 0.532,-0.094 0.532,-0.241C0.532,-0.387 0.43,-0.496 0.286,-0.496Z" style="fill:white;fill-rule:nonzero;"/>
            </g>
            <g transform="matrix(40.885,0,0,40.885,55.935,42.2545)">
                <rect x="0.08" y="-0.724" width="0.094" height="0.724" style="fill:white;fill-rule:nonzero;"/>
            </g>
            <g transform="matrix(40.885,0,0,40.885,66.3198,42.2545)">
                <path d="M0.141,-0.29C0.145,-0.352 0.193,-0.413 0.272,-0.413C0.357,-0.413 0.402,-0.359 0.404,-0.29L0.141,-0.29ZM0.418,-0.165C0.4,-0.111 0.361,-0.068 0.283,-0.068C0.202,-0.068 0.14,-0.128 0.138,-0.214L0.5,-0.214C0.501,-0.22 0.502,-0.232 0.502,-0.244C0.502,-0.394 0.419,-0.496 0.271,-0.496C0.15,-0.496 0.041,-0.393 0.041,-0.242C0.041,-0.079 0.154,0.015 0.283,0.015C0.395,0.015 0.472,-0.052 0.499,-0.137L0.418,-0.165Z" style="fill:white;fill-rule:nonzero;"/>
            </g>
            <g transform="matrix(40.885,0,0,40.885,88.4795,42.2545)">
                <path d="M0.05,-0.129C0.05,-0.053 0.113,0.015 0.211,0.015C0.297,0.015 0.345,-0.031 0.366,-0.065C0.366,-0.029 0.369,-0.011 0.371,0.001L0.463,0.001C0.461,-0.011 0.457,-0.036 0.457,-0.078L0.457,-0.32C0.457,-0.414 0.401,-0.496 0.257,-0.496C0.153,-0.496 0.07,-0.432 0.06,-0.34L0.15,-0.319C0.156,-0.375 0.193,-0.416 0.259,-0.416C0.332,-0.416 0.363,-0.377 0.363,-0.33C0.363,-0.313 0.355,-0.298 0.326,-0.294L0.196,-0.275C0.113,-0.263 0.05,-0.215 0.05,-0.128L0.05,-0.129ZM0.224,-0.064C0.176,-0.064 0.146,-0.098 0.146,-0.134C0.146,-0.177 0.176,-0.2 0.216,-0.206L0.363,-0.228L0.363,-0.206C0.363,-0.101 0.301,-0.064 0.224,-0.064Z" style="fill:white;fill-rule:nonzero;"/>
            </g>
            <g transform="matrix(40.885,0,0,40.885,109.862,42.2545)">
                <path d="M0.347,-0.486C0.342,-0.487 0.329,-0.489 0.316,-0.489C0.267,-0.489 0.207,-0.471 0.172,-0.397L0.172,-0.481L0.08,-0.481L0.08,-0L0.174,-0L0.174,-0.241C0.174,-0.347 0.227,-0.389 0.306,-0.389C0.319,-0.389 0.333,-0.388 0.347,-0.386L0.347,-0.486Z" style="fill:white;fill-rule:nonzero;"/>
            </g>
            <g transform="matrix(40.885,0,0,40.885,124.867,42.2545)">
                <path d="M0.174,-0.278C0.174,-0.351 0.212,-0.41 0.286,-0.41C0.37,-0.41 0.398,-0.356 0.398,-0.289L0.398,-0L0.492,-0L0.492,-0.305C0.492,-0.412 0.435,-0.495 0.32,-0.495C0.264,-0.495 0.207,-0.472 0.172,-0.412L0.172,-0.481L0.08,-0.481L0.08,-0L0.174,-0L0.174,-0.278Z" style="fill:white;fill-rule:nonzero;"/>
            </g>
        </g>
        <g id="graduation-cap-solid" transform="matrix(0.0992952,0,0,0.0992952,41.7067,30.5981)">
            <g transform="matrix(1,0,0,1,-320,-256)">
                <clipPath id="_clip1">
                    <rect x="0" y="0" width="640" height="512"/>
                </clipPath>
                <g clip-path="url(#_clip1)">
                    <path d="M622.34,153.2L343.4,67.5C328.2,62.83 311.8,62.83 296.61,67.5L17.66,153.2C-5.88,160.43 -5.88,191.56 17.66,198.79L66.29,213.73C55.62,226.92 49.06,243.01 48.41,260.63C38.78,266.15 32,276.11 32,288C32,298.78 37.68,307.85 45.86,313.65L20.33,428.53C18.11,438.52 25.71,448 35.94,448L92.05,448C102.29,448 109.89,438.52 107.67,428.53L82.14,313.65C90.32,307.85 96,298.78 96,288C96,276.43 89.53,266.75 80.34,261.13C81.1,246.11 88.78,232.83 101.03,224.41L296.6,284.5C305.66,287.28 323.04,290.75 343.39,284.5L622.34,198.8C645.89,191.56 645.89,160.44 622.34,153.2ZM352.79,315.09C324.26,323.85 299.95,319.01 287.2,315.09L142.18,270.54L128,384C128,419.35 213.96,448 320,448C426.04,448 512,419.35 512,384L497.82,270.53L352.79,315.09Z" style="fill:white;fill-rule:nonzero;"/>
                </g>
            </g>
        </g>
    </g>
</svg>
